<svg width="420" height="99" viewBox="0 0 420 99" fill="none" xmlns="http://www.w3.org/2000/svg">
<g filter="url(#filter0_f)">
<path d="M57.9974 7.15566L24.0195 2.25851C18.2186 1.42245 12.8426 5.4765 12.0117 11.3135L2.2774 79.6973C1.44652 85.5343 5.47546 90.9439 11.2763 91.78L45.2543 96.6771C51.0551 97.5132 56.4312 93.4591 57.2621 87.6221L66.9963 19.2383C67.8272 13.4013 63.7983 7.99172 57.9974 7.15566Z" fill="white" fill-opacity="0.795181"/>
<path d="M58.055 6.75122L24.077 1.85407C18.0506 0.985501 12.4697 5.19714 11.6073 11.2552L1.87306 79.6391C1.01071 85.6971 5.19231 91.3158 11.2187 92.1844L45.1967 97.0815C51.2231 97.9501 56.804 93.7385 57.6664 87.6804L67.4007 19.2965C68.263 13.2385 64.0814 7.61979 58.055 6.75122Z" stroke="black" stroke-width="0.817026" stroke-linejoin="round"/>
</g>
<path d="M62.1768 13.8074L19.2334 7.58069L17.711 18.3401L60.6543 24.5668L62.1768 13.8074Z" fill="white"/>
<path d="M60.6397 24.6064L17.6963 18.3796L16.1739 29.139L59.1172 35.3658L60.6397 24.6064Z" fill="#D52B1E"/>
<path d="M61.1519 21.0006L18.2134 14.78L17.1986 21.9459L60.1371 28.1665L61.1519 21.0006Z" fill="#0039A6"/>
<path d="M59.8442 13.3215L21.6016 7.78622C20.2279 7.5874 18.9568 8.54477 18.7614 9.92326L16.3736 26.7682C16.1782 28.1467 17.1323 29.4262 18.506 29.625L56.7486 35.1602C58.1222 35.359 59.3934 34.4017 59.5888 33.0232L61.9765 16.1782C62.1719 14.7997 61.2178 13.5203 59.8442 13.3215Z" stroke="black" stroke-width="0.272341" stroke-linejoin="round"/>
<path d="M10.5967 64.3027L7.559 85.8383L50.5244 92.088L53.562 70.5524L10.5967 64.3027Z" fill="#012169"/>
<path d="M9.74901 65.5276L27.2636 77.7158L7.08401 84.4211L7.559 85.8383L8.03399 87.2556L30.3274 79.8479L49.6767 93.3128L50.5244 92.088L51.372 90.8631L33.8574 78.6749L54.037 71.9696L53.562 70.5524L53.087 69.1351L30.7936 76.5428L11.4443 63.0779L10.5967 64.3027L9.74901 65.5276Z" fill="black" stroke="white" stroke-width="2.98427"/>
<path d="M10.5913 64.3027L50.53 92.088L10.5913 64.3027ZM53.5622 70.5619L7.55914 85.8288L53.5622 70.5619Z" fill="black"/>
<path d="M11.4114 63.1098L9.76735 65.4901L27.3569 77.7278L7.09654 84.4532L8.01752 87.2072L30.3348 79.7998L49.7101 93.2809L51.3527 90.9004L33.7633 78.6611L54.0235 71.9373L53.1041 69.1836L30.7868 76.5909L11.4114 63.1098Z" fill="#C8102E"/>
<path d="M31.5027 89.3211L32.6742 81.0159L51.6959 83.7827L52.0432 81.3202L52.3905 78.8577L33.3689 76.0908L34.5404 67.7855L32.0794 67.4276L29.6184 67.0696L28.4469 75.3749L9.42519 72.608L9.07784 75.0705L8.73049 77.5331L27.7522 80.2999L26.5807 88.6052L29.0417 88.9632L31.5027 89.3211Z" fill="black" stroke="white" stroke-width="4.97379"/>
<path d="M30.5183 89.1779L31.8287 79.8877L51.8348 82.7977L52.0432 81.3202L52.2516 79.8427L32.2455 76.9326L33.556 67.6423L32.0794 67.4276L30.6028 67.2128L29.2923 76.5031L9.28625 73.593L9.07784 75.0705L8.86943 76.5481L28.8755 79.4581L27.5651 88.7484L29.0417 88.9632L30.5183 89.1779Z" fill="black" stroke="#C8102E" stroke-width="2.98427"/>
<path d="M51.2295 70.0435L12.9868 64.5083C11.6132 64.3094 10.342 65.2668 10.1466 66.6453L7.75887 83.4904C7.56347 84.8689 8.51756 86.1484 9.89121 86.3472L48.1338 91.8824C49.5075 92.0813 50.7786 91.1239 50.974 89.7454L53.3618 72.9003C53.5572 71.5218 52.6031 70.2423 51.2295 70.0435Z" stroke="black" stroke-width="0.272341" stroke-linejoin="round"/>
<path d="M25.3019 51.5969C24.5947 48.8367 25 45.9685 26.4434 43.5205C27.656 41.4638 29.4794 39.9109 31.6612 39.0507L31.046 43.4038L32.7817 43.6558L33.7167 37.0398L27.1214 36.0824L26.8753 37.8235L29.4068 38.191C24.7144 40.8956 22.1896 46.5096 23.6042 52.0305C24.1433 54.1344 25.2226 56.0654 26.7256 57.6148C28.1827 59.1168 30.0083 60.2354 32.0051 60.8496L32.5145 59.1677C28.9303 58.0653 26.2341 55.2351 25.3019 51.5969Z" fill="black"/>
<path d="M46.2152 55.2979C47.8966 52.446 48.3689 49.1045 47.545 45.8889C47.0059 43.7849 45.9266 41.8539 44.4236 40.3046C42.9665 38.8025 41.1408 37.6839 39.1441 37.0697L38.6348 38.7516C42.2188 39.8541 44.915 42.6843 45.8472 46.3224C46.5544 49.0826 46.149 51.9509 44.7058 54.3989C43.4932 56.4556 41.6698 58.0084 39.488 58.8686L40.1032 54.5155L38.3676 54.2635L37.4325 60.8795L44.0278 61.8369L44.2739 60.0958L41.7499 59.7294C43.5783 58.679 45.1133 57.1669 46.2152 55.2979Z" fill="black"/>
<path d="M112.958 75.1352C113.833 74.3865 114.522 73.4176 115.026 72.2285C115.551 71.0394 115.814 69.7952 115.814 68.496C115.814 67.1747 115.562 66.1508 115.059 65.4241C115.409 64.8075 116.142 64.4992 117.258 64.4992C118.374 64.4992 119.228 64.8626 119.818 65.5893C120.431 66.3159 120.738 67.439 120.738 68.9584C120.738 70.4558 120.333 72.0193 119.523 73.6488C118.735 75.2563 117.619 76.6656 116.175 77.8768C112.98 80.5192 108.986 81.8405 104.193 81.8405C98.4812 81.8405 93.7871 80.0348 90.1105 76.4234C86.3683 72.7239 84.1142 67.45 83.3483 60.6016C82.9763 57.4747 81.8602 55.4488 80 54.5239C81.0286 54.0394 81.7398 53.533 82.1337 53.0045C82.7684 52.1016 83.1732 50.8795 83.3483 49.338C83.5452 47.7746 83.9063 46.1561 84.4316 44.4825C84.9568 42.8089 85.6461 41.2234 86.4996 39.726C87.375 38.2066 88.4145 36.8193 89.6181 35.5641C90.8218 34.2869 92.2005 33.1859 93.7542 32.261C97.0369 30.3012 100.867 29.3213 105.243 29.3213C109.511 29.3213 113.045 30.4003 115.846 32.5583C118.363 34.5182 119.993 37.1827 120.738 40.5518C121.088 42.2254 121.536 43.2603 122.083 43.6567C122.302 43.8329 122.576 43.998 122.904 44.1522C122.248 45.2532 121.252 45.8588 119.917 45.9689C119.326 46.057 118.691 45.9359 118.013 45.6055C116.809 47.6755 115.113 48.7765 112.925 48.9086C112.465 48.9527 112.115 48.8646 111.874 48.6444C112.465 47.8516 112.739 46.9268 112.695 45.8698C112.695 45.6716 112.662 45.4734 112.597 45.2752C111.59 45.4734 110.736 45.3853 110.036 45.011C108.898 44.3504 108.307 43.6347 108.264 42.864C108.264 42.6878 108.296 42.5116 108.362 42.3355C109.719 42.7318 111.01 42.4236 112.235 41.4106C113.067 40.728 113.461 39.9572 113.417 39.0984C113.373 38.2396 113.177 37.4909 112.826 36.8523C112.476 36.2137 111.973 35.6412 111.316 35.1347C109.828 33.9456 107.968 33.3511 105.736 33.3511C101.928 33.3511 99.4551 35.0687 98.3171 38.5039C97.9451 39.649 97.7591 40.9922 97.7591 42.5337V49.2059C97.7591 51.6942 98.9627 53.4669 101.37 54.5239C98.9627 55.691 97.7591 57.5958 97.7591 60.2382V68.3969C97.7591 72.5808 99.4113 75.3444 102.716 76.6877C103.788 77.1061 104.97 77.3152 106.261 77.3152C107.552 77.3152 108.767 77.1391 109.905 76.7867C111.065 76.4344 112.082 75.8839 112.958 75.1352ZM90.7999 72.0964C91.1281 71.9642 91.2923 71.733 91.2923 71.4027C91.2923 70.9183 91.0625 70.1585 90.6029 69.1236C89.4431 66.4591 88.8631 61.5925 88.8631 54.5239C88.8631 49.3711 89.4759 44.989 90.7014 41.3776C90.8546 40.8271 90.9312 40.4087 90.9312 40.1224C90.9312 39.8361 90.7889 39.649 90.5044 39.5609C89.4759 40.8601 88.7428 42.1483 88.3051 43.4255C87.4954 45.7597 86.8498 48.9197 86.3683 52.9054C86.3027 53.4779 85.6571 54.0174 84.4316 54.5239C85.6571 55.0744 86.3027 55.6359 86.3683 56.2085C87.1562 63.0349 88.1628 67.5931 89.3883 69.8833C89.8041 70.698 90.2747 71.4357 90.7999 72.0964Z" fill="#FEFFFF"/>
<path d="M148.213 77.7116C146.222 80.3541 143.235 81.6753 139.252 81.6753C134.393 81.6753 130.75 80.2109 128.32 77.2822C127.27 76.027 126.548 74.6287 126.154 73.0873C125.935 72.1624 125.552 71.4577 125.005 70.9733C124.458 70.4668 123.779 70.0154 122.97 69.619C124.545 68.8923 125.672 67.5271 126.351 65.5232C127.073 63.4092 128.277 61.8788 129.962 60.9319C131.778 59.941 133.781 59.4235 135.969 59.3794C138.157 59.3133 139.777 59.2363 140.827 59.1482C141.878 59.0601 142.808 58.917 143.618 58.7188C145.128 58.3665 146.309 57.7169 147.163 56.77V51.8153C147.163 49.6353 146.714 48.0388 145.817 47.0259C144.942 46.0129 143.596 45.5064 141.779 45.5064C139.985 45.5064 138.65 45.8478 137.774 46.5304C136.921 47.191 136.494 48.0828 136.494 49.2059C136.494 50.9235 137.37 51.7603 139.12 51.7163C138.77 53.4339 137.851 54.2927 136.363 54.2927C135.925 54.2927 135.498 54.2156 135.083 54.0615V54.1606C135.083 54.7331 135.345 55.0965 135.87 55.2506C135.323 56.0874 134.404 56.4948 133.113 56.4728C131.822 56.4507 130.815 55.7571 130.093 54.3918C129.765 54.4799 129.382 54.524 128.944 54.524C128.528 54.524 128.058 54.3809 127.533 54.0946C127.029 53.8083 126.624 53.412 126.318 52.9055C127.412 52.2449 128.08 51.2209 128.32 49.8336C128.583 48.138 129.929 46.4204 132.358 44.6808C135.291 42.5888 139.033 41.5428 143.585 41.5428C151.135 41.5428 155.741 43.877 157.405 48.5454C157.952 50.1089 158.225 51.9586 158.225 54.0946V56.7701C158.225 57.8491 158.488 58.7299 159.013 59.4126C159.56 60.0952 160.479 60.6567 161.771 61.0972C160.392 61.7358 159.505 62.3083 159.112 62.8148C158.521 63.5855 158.225 64.4663 158.225 65.4572V75.3665C158.86 77.0181 159.768 77.8438 160.95 77.8438C161.694 77.8438 162.307 77.6567 162.788 77.2823C163.094 77.7007 163.248 78.2292 163.248 78.8678C163.248 79.4844 162.93 80.0789 162.296 80.6515C161.683 81.224 160.753 81.5103 159.505 81.5103C158.258 81.5103 157.098 81.1579 156.026 80.4533C155.085 81.1579 154.242 81.5103 153.498 81.5103C152.776 81.5103 152.141 81.4332 151.594 81.2791C151.069 81.1469 150.577 80.9267 150.117 80.6184C149.089 79.9358 148.454 78.9669 148.213 77.7117V77.7116ZM150.281 72.0963C151.551 71.5899 152.218 69.1566 152.284 64.7965C152.284 63.8716 152.284 62.8146 152.284 61.6255C152.284 60.4364 152.273 59.4235 152.251 58.5867C152.251 57.7279 152.24 56.9131 152.218 56.1424C152.13 53.3678 151.879 51.7162 151.463 51.1878C151.047 50.6372 150.653 50.2739 150.281 50.0977L150.281 72.0963ZM138.168 69.7511C138.168 70.676 138.267 71.5788 138.464 72.4597C138.661 73.3405 138.956 74.1112 139.35 74.7718C140.225 76.1591 141.462 76.8528 143.059 76.8528C144.263 76.8528 145.259 76.3573 146.047 75.3664C146.791 74.3975 147.163 73.1533 147.163 71.6339V60.8658C145.762 61.6806 143.968 62.2421 141.779 62.5504C139.372 62.9247 138.168 65.325 138.168 69.7511ZM133.244 77.1831C133.463 77.029 133.573 76.8308 133.573 76.5885C133.573 76.2582 133.419 75.7958 133.113 75.2012C132.019 73.1753 131.472 71.5128 131.472 70.2136C131.472 68.9144 131.516 67.9785 131.603 67.4059C131.712 66.8334 131.844 66.349 131.997 65.9526C132.172 65.5342 132.358 65.1708 132.555 64.8626C132.774 64.5543 132.96 64.279 133.113 64.0368C133.398 63.5303 133.54 63.189 133.54 63.0128C133.54 62.8146 133.441 62.6495 133.244 62.5174C132.347 62.9358 131.691 63.4312 131.275 64.0038C130.531 65.0167 129.984 66.3269 129.633 67.9345C129.546 68.3969 128.78 68.9584 127.336 69.619C128.736 70.2576 129.502 70.8191 129.633 71.3036C130.378 73.924 131.581 75.8839 133.244 77.1831Z" fill="#FEFFFF"/>
<path d="M173.424 80.4531C172.417 81.1578 171.268 81.5101 169.977 81.5101C168.686 81.5101 167.745 81.2128 167.154 80.6183C166.585 80.0017 166.3 79.4181 166.3 78.8676C166.3 78.1409 166.421 77.6124 166.661 77.2821C167.143 77.6565 167.756 77.8437 168.5 77.8437C169.9 77.8437 170.808 77.161 171.224 75.7957V65.7874C171.224 64.7744 171.027 64.0257 170.633 63.5413C169.933 62.6825 168.795 61.8677 167.219 61.097C169.889 59.8638 171.224 57.97 171.224 55.4156V51.9474C171.224 50.0757 170.59 49.0627 169.32 48.9086C168.948 48.8645 168.478 48.8425 167.909 48.8425C167.34 48.8425 166.815 49.0296 166.333 49.404C166.027 48.9856 165.874 48.5562 165.874 48.1158C165.874 47.6534 165.983 47.1469 166.202 46.5964C166.443 46.0238 166.804 45.4843 167.285 44.9778C168.423 43.7887 169.747 43.1942 171.257 43.1942C172.789 43.1942 174.058 43.4364 175.065 43.9209C176.269 42.5556 177.56 41.8729 178.938 41.8729C181.083 41.8729 182.155 43.062 182.155 45.4403V49.9655C184.344 44.5484 187.823 41.8399 192.594 41.8399C194.739 41.8399 196.479 42.5005 197.814 43.8218C199.192 45.165 199.882 47.0258 199.882 49.404V49.8664C199.882 50.0206 199.86 50.3399 199.816 50.8243C199.772 51.2868 199.783 51.7602 199.849 52.2446C199.936 52.7291 200.068 53.1255 200.243 53.4338C200.483 53.8962 200.932 54.2595 201.589 54.5238C201.435 55.1183 201.074 55.6578 200.505 56.1423C199.958 56.6047 199.345 56.836 198.667 56.836H198.043C197.19 57.915 195.997 58.6747 194.465 59.1151C194.028 59.2472 193.546 59.3133 193.021 59.3133C192.518 59.3133 192.069 59.2032 191.675 58.983C191.303 58.7407 191.095 58.4875 191.051 58.2232C191.467 58.0251 191.675 57.6287 191.675 57.0341V56.869C191.5 56.913 191.347 56.9351 191.215 56.9351H190.887C190.165 56.9351 189.509 56.6598 188.918 56.1093C188.349 55.5588 187.977 54.8651 187.802 54.0284C188.983 54.0724 190.012 53.632 190.887 52.7071C191.675 51.8924 192.069 51.0556 192.069 50.1968C192.069 48.1709 191.194 47.1579 189.443 47.1579C187.933 47.1579 186.412 48.3691 184.88 50.7913C183.436 53.0154 182.527 55.3166 182.155 57.6948V75.5645C182.396 76.3353 182.768 76.9078 183.271 77.2821C183.775 77.6565 184.464 77.8437 185.34 77.8437C186.215 77.8437 186.893 77.6565 187.375 77.2821C187.616 77.6125 187.736 78.0969 187.736 78.7355C187.736 79.3741 187.44 80.0017 186.85 80.6183C186.281 81.2128 185.307 81.5101 183.928 81.5101C182.571 81.5101 181.269 81.1357 180.022 80.387C179.146 81.1357 178.085 81.5101 176.838 81.5101C175.59 81.5101 174.452 81.1578 173.424 80.4531L173.424 80.4531ZM176.247 64.7964C176.269 64.0477 176.28 63.4201 176.28 62.9137C176.301 62.4072 176.312 61.9998 176.312 61.6915V60.7997C176.312 60.4694 176.301 60.051 176.28 59.5445C176.28 59.016 176.269 58.4325 176.247 57.7939C176.247 57.1333 176.236 56.4947 176.214 55.8781C176.083 53.5879 175.831 52.1236 175.459 51.485C175.109 50.8243 174.748 50.3729 174.376 50.1307V52.2777C174.376 55.9772 174.288 58.1572 174.113 58.8178C173.96 59.4564 173.697 59.9409 173.325 60.2712C172.975 60.5795 172.45 60.8548 171.749 61.097C173.063 61.5594 173.807 62.1209 173.982 62.7816C174.244 63.8385 174.376 66.2168 174.376 69.9162V72.0632C175.382 71.4026 175.951 70.0594 176.083 68.0335C176.192 66.6021 176.247 65.5231 176.247 64.7964H176.247Z" fill="#FEFFFF"/>
<path d="M234.186 81.5102C231.953 81.5102 230.214 80.299 228.966 77.8768C227.412 79.6825 225.333 80.8716 222.729 81.4441C221.963 81.5982 221.208 81.6753 220.464 81.6753C215.868 81.6753 212.301 80.2109 209.763 77.2822C207.443 74.5737 206.141 70.7421 205.856 65.7874C205.813 64.8185 205.594 64.0808 205.2 63.5744C204.543 62.7376 203.427 61.9338 201.852 61.1631C204.434 59.974 205.78 58.1463 205.889 55.68C205.999 53.2137 206.425 51.1107 207.169 49.3711C207.935 47.6094 208.953 46.1671 210.222 45.044C212.651 42.93 216.044 41.873 220.398 41.873C222.784 41.873 224.852 42.4896 226.603 43.7228C227.194 44.1412 227.697 44.6256 228.113 45.1761V38.0745C228.113 35.5641 227.095 34.309 225.06 34.309C224.316 34.309 223.703 34.4961 223.222 34.8705C222.915 34.4521 222.762 34.0227 222.762 33.5823C222.762 33.1198 222.871 32.6794 223.09 32.261C223.331 31.8427 223.692 31.4573 224.174 31.105C225.202 30.3563 226.504 29.9819 228.08 29.9819C229.656 29.9819 230.881 30.081 231.756 30.2792C232.96 28.7598 234.317 28.0001 235.827 28.0001C238.081 28.0001 239.208 29.1892 239.208 31.5674V56.77C239.208 58.4436 240.543 59.8969 243.213 61.1301C240.543 62.3412 239.208 63.7836 239.208 65.4571V75.3664C239.843 77.018 240.751 77.8437 241.933 77.8437C242.677 77.8437 243.289 77.6566 243.771 77.2822C244.077 77.7006 244.23 78.2291 244.23 78.8677C244.23 79.4843 243.913 80.0788 243.278 80.6514C242.666 81.2239 241.736 81.5102 240.488 81.5102C239.241 81.5102 238.081 81.1578 237.009 80.4532C236.068 81.1578 235.127 81.5102 234.186 81.5102ZM231.264 72.0963C232.358 71.678 232.949 70.3677 233.037 68.1657C233.059 67.6592 233.069 67.0426 233.069 66.3159C233.091 65.5672 233.113 64.7415 233.135 63.8386C233.157 62.9358 233.168 62.0219 233.168 61.097L233.234 58.4546C233.234 57.5958 233.234 56.8471 233.234 56.2085C233.256 55.5479 233.267 55.0304 233.267 54.656V54.1605C233.267 54.0945 233.256 53.7862 233.234 53.2357C233.234 52.6632 233.223 51.9695 233.201 51.1547C233.201 50.3179 233.19 49.4261 233.168 48.4792L233.102 45.7046C233.059 43.6787 232.982 42.3905 232.873 41.84C232.697 40.739 232.161 39.9793 231.264 39.5609L231.264 72.0963ZM222.204 46.6956C218.702 46.6956 216.952 49.283 216.952 54.4578V68.9254C216.952 72.9552 218.276 75.4545 220.924 76.4234C221.668 76.7097 222.401 76.8528 223.123 76.8528C223.867 76.8528 224.535 76.7097 225.125 76.4234C225.738 76.1151 226.263 75.7187 226.701 75.2343C227.642 74.1553 228.113 72.8671 228.113 71.3697V54.4578C228.113 50.406 226.887 47.9507 224.436 47.0919C223.714 46.8277 222.97 46.6956 222.204 46.6956ZM211.601 72.0963C211.907 71.8541 212.061 71.5789 212.061 71.2706C212.061 70.7861 211.962 70.1695 211.765 69.4208C210.868 65.9636 210.419 63.5744 210.419 62.2531C210.419 60.9099 210.463 59.8529 210.551 59.0822C210.638 58.3114 210.759 57.5517 210.912 56.803C211.196 55.2175 211.481 53.8743 211.765 52.7732C211.962 52.0245 212.061 51.5181 212.061 51.2538C212.061 50.7253 211.907 50.34 211.601 50.0978C210.682 51.1988 209.982 52.6852 209.5 54.5569C209.019 56.4287 208.625 58.0692 208.318 59.4785C208.209 60.0511 207.563 60.6126 206.382 61.1631C207.563 61.7136 208.209 62.2751 208.318 62.8477C209.128 66.5692 209.796 68.9254 210.321 69.9163C210.846 70.9072 211.273 71.6339 211.601 72.0963H211.601Z" fill="#FEFFFF"/>
<path d="M254.964 80.0568C253.476 81.4881 252.043 82.2038 250.664 82.2038C249.898 82.2038 249.373 81.9175 249.088 81.345C249.592 80.8385 249.843 80.3321 249.843 79.8256C249.843 79.3191 249.767 78.9338 249.614 78.6695L249.187 77.9098L249.712 78.9007C249.187 78.6585 248.782 78.2511 248.498 77.6786C248.213 77.106 248.071 76.4124 248.071 75.5976C248.071 74.7608 248.53 73.814 249.45 72.757C249.012 72.1404 248.793 71.4578 248.793 70.7091C248.793 69.9604 248.913 69.3438 249.154 68.8593C249.417 68.3528 249.745 67.9014 250.139 67.505C251.014 66.6683 251.944 66.2499 252.929 66.2499C253.586 66.2499 254.056 66.4811 254.341 66.9435C253.75 67.5821 253.454 68.5951 253.454 69.9824C253.454 71.3476 253.684 72.5147 254.144 73.4837C254.625 74.4526 255.271 75.2783 256.08 75.961C257.787 77.4143 259.888 78.141 262.383 78.141C265.162 78.141 267.088 77.1171 268.161 75.0691C268.467 74.4526 268.62 73.836 268.62 73.2194C268.62 72.5808 268.478 72.0193 268.193 71.5348C267.909 71.0283 267.537 70.5439 267.077 70.0815C266.311 69.3328 265.141 68.474 263.565 67.505C262.055 66.426 260.271 65.8865 258.214 65.8865C256.879 65.8865 255.982 65.9966 255.522 66.2169C255.807 65.5562 255.949 64.8956 255.949 64.235C255.949 63.5744 255.511 62.8587 254.636 62.088C253.761 61.2952 252.973 60.5025 252.273 59.7097C251.594 58.917 251.047 58.1243 250.631 57.3315C249.8 55.8341 249.384 54.2486 249.384 52.5751C249.384 50.9015 249.723 49.4261 250.401 48.1489C251.102 46.8497 252.076 45.7377 253.323 44.8128C255.927 42.853 259.265 41.8731 263.335 41.8731C265.305 41.8731 266.651 41.9611 267.373 42.1373C268.117 42.3135 268.708 42.4786 269.145 42.6328C269.736 42.853 270.458 42.9631 271.312 42.9631C272.165 42.9631 272.756 42.7759 273.085 42.4016C273.435 42.0272 273.61 41.6859 273.61 41.3776C273.61 41.0473 273.577 40.794 273.511 40.6179C273.643 40.5738 273.839 40.5518 274.102 40.5518C274.365 40.5518 274.66 40.6289 274.988 40.783C275.339 40.9372 275.645 41.1464 275.908 41.4106C276.433 42.0052 276.695 42.6438 276.695 43.3264C276.695 43.987 276.564 44.4935 276.301 44.8458C276.914 45.4184 277.221 46.2331 277.221 47.2901C277.221 48.3471 276.783 49.239 275.908 49.9656C276.104 50.362 276.203 50.8465 276.203 51.419C276.203 51.9915 275.897 52.542 275.284 53.0705C274.671 53.599 274.091 53.8633 273.544 53.8633C272.603 53.8633 271.968 53.7422 271.64 53.4999C271.925 52.7953 272.067 52.0356 272.067 51.2208C272.067 50.384 271.848 49.5913 271.41 48.8426C270.973 48.0939 270.415 47.4883 269.736 47.0259C268.467 46.1451 266.957 45.7046 265.206 45.7046C262.996 45.7046 261.508 46.4093 260.742 47.8186C260.501 48.259 260.381 48.7435 260.381 49.272C260.381 49.7785 260.446 50.2519 260.578 50.6923C260.731 51.1107 260.972 51.5401 261.3 51.9805C261.934 52.8393 262.832 53.6541 263.992 54.4248C265.502 55.4157 266.552 55.9112 267.143 55.9112C268.412 55.9112 269.517 55.6029 270.458 54.9863C270.196 56.0433 270.064 56.781 270.064 57.1994C270.064 57.838 270.568 58.5757 271.574 59.4125C274.398 61.3723 276.323 63.167 277.352 64.7965C278.337 66.382 278.829 68.1437 278.829 70.0815C278.829 72.0193 278.402 73.6818 277.549 75.0691C276.695 76.4344 275.536 77.6125 274.069 78.6034C271.027 80.6514 267.34 81.6753 263.007 81.6753C260.052 81.6753 257.372 81.1358 254.964 80.0568H254.964ZM253.815 49.8005C253.181 50.1088 252.863 50.9676 252.863 52.3769C252.863 53.7642 253.312 55.0964 254.209 56.3736C255.107 57.6288 256.529 59.0491 258.477 60.6346C258.936 60.9869 259.166 61.3283 259.166 61.6586C259.166 62.1651 259.122 62.5724 259.035 62.8807C259.297 62.8146 259.757 62.7486 260.413 62.6825C262.011 62.5284 263.992 63.2771 266.355 64.9286C270.119 67.2628 272.001 69.7181 272.001 72.2945C272.001 73.2634 271.87 73.9901 271.607 74.4746C272.395 74.3204 272.997 73.6488 273.413 72.4597C273.522 72.1073 273.577 71.744 273.577 71.3697C273.577 69.586 272.614 67.7803 270.688 65.9526C268.784 64.1029 266.038 62.3192 262.449 60.6016C256.496 57.5627 253.618 53.9624 253.815 49.8005H253.815Z" fill="#FEFFFF"/>
<path d="M311.853 70.8742C312.334 69.9494 313.22 69.487 314.512 69.487C315.387 69.487 316.065 69.8503 316.547 70.577C316.941 71.1495 317.138 71.8542 317.138 72.691C317.138 73.5057 316.93 74.3315 316.514 75.1683C316.098 76.005 315.529 76.7648 314.807 77.4474C314.085 78.13 313.253 78.7356 312.312 79.2641C311.393 79.7926 310.408 80.233 309.358 80.5853C307.191 81.312 304.937 81.6754 302.596 81.6754C300.254 81.6754 298.055 81.29 295.998 80.5193C293.962 79.7265 292.212 78.6255 290.745 77.2162C287.878 74.4416 286.128 70.632 285.493 65.7875C285.34 64.7085 285.088 63.9377 284.738 63.4753C284.082 62.6606 282.998 61.8788 281.488 61.1301C283.392 60.2713 284.607 58.895 285.132 57.0013C285.285 56.4728 285.406 55.9443 285.493 55.4158C286.04 51.5401 287.988 48.2371 291.336 45.5065C294.575 42.864 298.197 41.5428 302.202 41.5428C306.36 41.5428 309.96 43.0182 313.002 45.9689C316.153 49.0078 317.729 52.7403 317.729 57.1664C317.729 57.3206 317.718 57.4747 317.696 57.6288C317.696 57.783 317.707 57.9261 317.729 58.0582C317.772 58.3445 317.947 58.5097 318.254 58.5537C318.648 59.0602 318.845 59.5997 318.845 60.1722C318.845 61.4935 318.144 62.2752 316.744 62.5174C316.394 62.5835 315.847 62.6716 315.102 62.7817L296.588 65.7545V68.9254C296.588 71.4798 297.354 73.5057 298.886 75.0031C300.331 76.4345 302.158 77.1501 304.368 77.1501C306.71 77.1501 308.592 76.6657 310.014 75.6968C311.349 74.7719 312.017 73.5608 312.017 72.0634C312.017 71.711 311.962 71.3147 311.853 70.8742ZM306.108 60.2053V50.9566C306.108 49.5032 305.824 48.4352 305.255 47.7526C304.248 46.5855 303.252 46.002 302.267 46.002C301.283 46.002 300.462 46.1561 299.805 46.4644C299.149 46.7507 298.58 47.2131 298.098 47.8517C297.092 49.195 296.588 51.2869 296.588 54.1276V61.7577L306.108 60.2053ZM310.966 59.3795V58.3555C310.966 54.2597 310.627 51.7824 309.949 50.9236C309.642 50.5492 309.303 50.274 308.931 50.0978V59.7098L310.966 59.3795ZM291.238 72.0964C291.544 71.8542 291.697 71.5789 291.697 71.2706C291.697 70.7862 291.599 70.1696 291.402 69.4209C290.505 65.9636 290.056 63.5634 290.056 62.2201C290.056 60.8549 290.1 59.7979 290.187 59.0492C290.275 58.2785 290.395 57.5077 290.548 56.737C290.811 55.2396 291.096 53.9184 291.402 52.7733C291.599 52.0246 291.697 51.5181 291.697 51.2539C291.697 50.7254 291.544 50.34 291.238 50.0978C290.319 51.1988 289.618 52.6742 289.137 54.5239C288.655 56.3737 288.262 58.0032 287.955 59.4125C287.846 60.0071 287.2 60.5796 286.018 61.1301C287.2 61.6806 287.846 62.2312 287.955 62.7817C288.765 66.5032 289.432 68.8704 289.958 69.8833C290.483 70.8963 290.909 71.634 291.238 72.0964H291.238Z" fill="#FEFFFF"/>
<path d="M344.318 76.027C344.734 75.5866 345.062 75.036 345.303 74.3754C345.544 73.6928 345.664 72.9881 345.664 72.2614C345.664 71.5127 345.62 70.8301 345.533 70.2135C345.686 69.8832 346.102 69.63 346.78 69.4538C347.458 69.2556 347.907 69.1565 348.126 69.1565C348.957 69.1565 349.625 69.4758 350.128 70.1144C350.632 70.731 350.883 71.6008 350.883 72.7239C350.883 73.8249 350.555 74.9149 349.899 75.9939C349.264 77.073 348.41 78.0309 347.338 78.8676C344.953 80.7394 342.173 81.6753 339 81.6753C332.96 81.6753 328.955 79.3741 326.986 74.7718C326.264 73.0762 325.902 70.9512 325.902 68.3968V64.3671C325.902 63.3321 324.775 62.2421 322.521 61.097C324.775 59.7978 325.902 58.0471 325.902 55.8451V51.9474C325.902 49.4371 324.885 48.1819 322.85 48.1819C322.106 48.1819 321.493 48.3691 321.011 48.7434C320.705 48.325 320.552 47.8956 320.552 47.4552C320.552 46.9928 320.628 46.4973 320.782 45.9688C320.957 45.4183 321.252 44.9228 321.668 44.4824C322.718 43.3374 324.349 42.941 326.559 43.2933V42.2363C326.559 39.9242 327.139 37.8873 328.299 36.1256C329.327 34.5401 330.236 33.7474 331.023 33.7474C331.833 33.7474 332.457 34.0226 332.894 34.5731C333.267 32.8335 333.759 31.5784 334.372 30.8076C334.984 30.0369 335.86 29.6516 336.998 29.6516V43.4254H347.666C347.841 43.7778 347.929 44.3723 347.929 45.2091C347.929 46.0239 347.612 46.6845 346.977 47.191C346.342 47.6754 345.576 47.9177 344.679 47.9177H336.998V70.2796C336.998 74.1112 337.862 76.3573 339.591 77.0179C340.094 77.1941 340.631 77.2822 341.2 77.2822C341.79 77.2822 342.348 77.1831 342.874 76.9849C343.421 76.7647 343.902 76.4454 344.318 76.027H344.318ZM329.054 72.0963C330.082 71.4357 330.662 70.0594 330.794 67.9674C330.881 66.47 330.925 65.3029 330.925 64.4661C330.947 63.6294 330.958 62.9577 330.958 62.4513C330.98 61.9228 330.991 61.5154 330.991 61.2291V59.9079C330.991 59.2693 330.98 58.4545 330.958 57.4636C330.958 56.4506 330.947 55.3606 330.925 54.1935C330.925 53.0044 330.903 51.8704 330.859 50.7914C330.794 48.1929 330.695 46.6074 330.564 46.0349C330.301 44.7577 329.798 43.8769 329.054 43.3924V53.6981C329.054 56.7589 328.999 58.3775 328.89 58.5536C328.802 58.7298 328.726 58.939 328.66 59.1812C328.463 59.8418 327.719 60.3923 326.428 60.8327C327.741 61.2952 328.485 61.8567 328.66 62.5173C328.923 63.5743 329.054 66.0516 329.054 69.9493L329.054 72.0963Z" fill="#FEFFFF"/>
<path d="M373.697 76.027C374.113 75.5866 374.442 75.036 374.682 74.3754C374.923 73.6928 375.043 72.9881 375.043 72.2614C375.043 71.5127 375 70.8301 374.912 70.2135C375.065 69.8832 375.481 69.63 376.159 69.4538C376.838 69.2556 377.286 69.1565 377.505 69.1565C378.337 69.1565 379.004 69.4758 379.508 70.1144C380.011 70.731 380.263 71.6008 380.263 72.7239C380.263 73.8249 379.934 74.9149 379.278 75.9939C378.643 77.073 377.79 78.0309 376.718 78.8676C374.332 80.7394 371.553 81.6753 368.38 81.6753C362.34 81.6753 358.335 79.3741 356.365 74.7718C355.643 73.0762 355.282 70.9512 355.282 68.3968V64.3671C355.282 63.3321 354.155 62.2421 351.901 61.097C354.155 59.7978 355.282 58.0471 355.282 55.8451V51.9474C355.282 49.4371 354.264 48.1819 352.229 48.1819C351.485 48.1819 350.872 48.3691 350.391 48.7434C350.084 48.325 349.931 47.8956 349.931 47.4552C349.931 46.9928 350.008 46.4973 350.161 45.9688C350.336 45.4183 350.631 44.9228 351.047 44.4824C352.098 43.3374 353.728 42.941 355.938 43.2933V42.2363C355.938 39.9242 356.518 37.8873 357.678 36.1256C358.707 34.5401 359.615 33.7474 360.403 33.7474C361.212 33.7474 361.836 34.0226 362.274 34.5731C362.646 32.8335 363.138 31.5784 363.751 30.8076C364.364 30.0369 365.239 29.6516 366.377 29.6516V43.4254H377.046C377.221 43.7778 377.308 44.3723 377.308 45.2091C377.308 46.0239 376.991 46.6845 376.356 47.191C375.722 47.6754 374.956 47.9177 374.059 47.9177H366.377V70.2796C366.377 74.1112 367.242 76.3573 368.97 77.0179C369.474 77.1941 370.01 77.2822 370.579 77.2822C371.17 77.2822 371.728 77.1831 372.253 76.9849C372.8 76.7647 373.282 76.4454 373.697 76.027H373.697ZM358.433 72.0963C359.462 71.4357 360.042 70.0594 360.173 67.9674C360.261 66.47 360.304 65.3029 360.304 64.4661C360.326 63.6294 360.337 62.9577 360.337 62.4513C360.359 61.9228 360.37 61.5154 360.37 61.2291V59.9079C360.37 59.2693 360.359 58.4545 360.337 57.4636C360.337 56.4506 360.326 55.3606 360.304 54.1935C360.304 53.0044 360.283 51.8704 360.239 50.7914C360.173 48.1929 360.075 46.6074 359.943 46.0349C359.681 44.7577 359.177 43.8769 358.433 43.3924V53.6981C358.433 56.7589 358.379 58.3775 358.269 58.5536C358.182 58.7298 358.105 58.939 358.039 59.1812C357.842 59.8418 357.098 60.3923 355.807 60.8327C357.12 61.2952 357.864 61.8567 358.039 62.5173C358.302 63.5743 358.433 66.0516 358.433 69.9493L358.433 72.0963Z" fill="#FEFFFF"/>
<path d="M404.85 77.7116C402.858 80.3541 399.871 81.6753 395.888 81.6753C391.03 81.6753 387.386 80.2109 384.957 77.2822C383.907 76.027 383.185 74.6287 382.791 73.0873C382.572 72.1624 382.189 71.4577 381.642 70.9733C381.095 70.4668 380.416 70.0154 379.606 69.619C381.182 68.8923 382.309 67.5271 382.988 65.5232C383.71 63.4092 384.913 61.8788 386.598 60.9319C388.415 59.941 390.417 59.4235 392.606 59.3794C394.794 59.3133 396.414 59.2363 397.464 59.1482C398.514 59.0601 399.445 58.917 400.254 58.7188C401.764 58.3665 402.946 57.7169 403.799 56.77V51.8153C403.799 49.6353 403.351 48.0388 402.454 47.0259C401.578 46.0129 400.232 45.5064 398.416 45.5064C396.621 45.5064 395.287 45.8478 394.411 46.5304C393.558 47.191 393.131 48.0828 393.131 49.2059C393.131 50.9235 394.006 51.7603 395.757 51.7163C395.407 53.4339 394.488 54.2927 393 54.2927C392.562 54.2927 392.135 54.2156 391.719 54.0615V54.1606C391.719 54.7331 391.982 55.0965 392.507 55.2506C391.96 56.0874 391.041 56.4948 389.75 56.4728C388.459 56.4507 387.452 55.7571 386.73 54.3918C386.402 54.4799 386.019 54.524 385.581 54.524C385.165 54.524 384.695 54.3809 384.169 54.0946C383.666 53.8083 383.261 53.412 382.955 52.9055C384.049 52.2449 384.716 51.2209 384.957 49.8336C385.22 48.138 386.566 46.4204 388.995 44.6808C391.927 42.5888 395.669 41.5428 400.221 41.5428C407.771 41.5428 412.378 43.877 414.041 48.5454C414.588 50.1089 414.862 51.9586 414.862 54.0946V56.7701C414.862 57.8491 415.125 58.7299 415.65 59.4126C416.197 60.0952 417.116 60.6567 418.407 61.0972C417.028 61.7358 416.142 62.3083 415.748 62.8148C415.157 63.5855 414.862 64.4663 414.862 65.4572V75.3665C415.497 77.0181 416.405 77.8438 417.587 77.8438C418.331 77.8438 418.943 77.6567 419.425 77.2823C419.731 77.7007 419.884 78.2292 419.884 78.8678C419.884 79.4844 419.567 80.0789 418.932 80.6515C418.32 81.224 417.39 81.5103 416.142 81.5103C414.895 81.5103 413.735 81.1579 412.663 80.4533C411.722 81.1579 410.879 81.5103 410.135 81.5103C409.413 81.5103 408.778 81.4332 408.231 81.2791C407.706 81.1469 407.213 80.9267 406.754 80.6184C405.725 79.9358 405.091 78.9669 404.85 77.7117V77.7116ZM406.918 72.0963C408.187 71.5899 408.855 69.1566 408.92 64.7965C408.92 63.8716 408.92 62.8146 408.92 61.6255C408.92 60.4364 408.909 59.4235 408.888 58.5867C408.888 57.7279 408.877 56.9131 408.855 56.1424C408.767 53.3678 408.515 51.7162 408.1 51.1878C407.684 50.6372 407.29 50.2739 406.918 50.0977L406.918 72.0963ZM394.805 69.7511C394.805 70.676 394.904 71.5788 395.1 72.4597C395.297 73.3405 395.593 74.1112 395.987 74.7718C396.862 76.1591 398.099 76.8528 399.696 76.8528C400.9 76.8528 401.896 76.3573 402.683 75.3664C403.427 74.3975 403.799 73.1533 403.799 71.6339V60.8658C402.399 61.6806 400.604 62.2421 398.416 62.5504C396.009 62.9247 394.805 65.325 394.805 69.7511ZM389.881 77.1831C390.1 77.029 390.209 76.8308 390.209 76.5885C390.209 76.2582 390.056 75.7958 389.75 75.2012C388.656 73.1753 388.109 71.5128 388.109 70.2136C388.109 68.9144 388.152 67.9785 388.24 67.4059C388.349 66.8334 388.481 66.349 388.634 65.9526C388.809 65.5342 388.995 65.1708 389.192 64.8626C389.411 64.5543 389.597 64.279 389.75 64.0368C390.034 63.5303 390.177 63.189 390.177 63.0128C390.177 62.8146 390.078 62.6495 389.881 62.5174C388.984 62.9358 388.327 63.4312 387.912 64.0038C387.167 65.0167 386.62 66.3269 386.27 67.9345C386.183 68.3969 385.417 68.9584 383.972 69.619C385.373 70.2576 386.139 70.8191 386.27 71.3036C387.014 73.924 388.218 75.8839 389.881 77.1831H389.881Z" fill="#FEFFFF"/>
<defs>
<filter id="filter0_f" x="-1.04456" y="-1.0647" width="71.363" height="101.065" filterUnits="userSpaceOnUse" color-interpolation-filters="sRGB">
<feFlood flood-opacity="0" result="BackgroundImageFix"/>
<feBlend mode="normal" in="SourceGraphic" in2="BackgroundImageFix" result="shape"/>
<feGaussianBlur stdDeviation="1.1983" result="effect1_foregroundBlur"/>
</filter>
</defs>
</svg>
