<?xml version="1.0" encoding="UTF-8" standalone="no"?>
<!-- Created with Inkscape (http://www.inkscape.org/) -->

<svg
   width="843.01813"
   height="476.62582"
   viewBox="0 0 223.04855 126.10725"
   version="1.1"
   id="svg5"
   sodipodi:docname="notfound.svg"
   inkscape:version="1.1 (c68e22c387, 2021-05-23)"
   xmlns:inkscape="http://www.inkscape.org/namespaces/inkscape"
   xmlns:sodipodi="http://sodipodi.sourceforge.net/DTD/sodipodi-0.dtd"
   xmlns="http://www.w3.org/2000/svg"
   xmlns:svg="http://www.w3.org/2000/svg">
  <sodipodi:namedview
     id="namedview21"
     pagecolor="#ffffff"
     bordercolor="#999999"
     borderopacity="1"
     inkscape:pageshadow="0"
     inkscape:pageopacity="0"
     inkscape:pagecheckerboard="0"
     showgrid="false"
     inkscape:snap-object-midpoints="true"
     showguides="true"
     inkscape:guide-bbox="true"
     inkscape:snap-midpoints="false"
     inkscape:snap-bbox="false"
     inkscape:snap-center="false"
     inkscape:snap-grids="true"
     inkscape:object-nodes="false"
     inkscape:snap-to-guides="true"
     inkscape:zoom="0.565625"
     inkscape:cx="194.47514"
     inkscape:cy="366.85083"
     inkscape:window-width="1920"
     inkscape:window-height="1017"
     inkscape:window-x="-8"
     inkscape:window-y="-8"
     inkscape:window-maximized="1"
     inkscape:current-layer="Message"
     inkscape:snap-text-baseline="true"
     fit-margin-top="0"
     fit-margin-left="0"
     fit-margin-right="0"
     fit-margin-bottom="0">
    <inkscape:grid
       type="xygrid"
       id="grid129"
       originx="-212.88194"
       originy="-79.57138" />
  </sodipodi:namedview>
  <defs
     id="defs2">
    <clipPath
       clipPathUnits="userSpaceOnUse"
       id="clipPath1662">
      <rect
         style="opacity:1;fill:none;fill-opacity:1;stroke:#000000;stroke-width:0.499999;stroke-linecap:butt;stroke-linejoin:round;stroke-miterlimit:4;stroke-dasharray:none;stroke-opacity:1"
         id="rect1664"
         width="53.075073"
         height="26.537542"
         x="164.8898"
         y="95.618927" />
    </clipPath>
    <clipPath
       clipPathUnits="userSpaceOnUse"
       id="clipPath27">
      <rect
         style="fill:none;stroke:#000000;stroke-width:0.363649;stroke-linejoin:round"
         id="rect29"
         width="39.848148"
         height="19.924074"
         x="35.74844"
         y="113.76128"
         ry="2.1819015"
         rx="2.1819015" />
    </clipPath>
    <clipPath
       clipPathUnits="userSpaceOnUse"
       id="clipPath155">
      <rect
         style="fill:none;stroke:#000000;stroke-width:0.0948394;stroke-linejoin:round"
         id="rect157"
         width="9"
         height="6"
         x="1.1180849e-07"
         y="3.4545022e-07"
         rx="0.49279964"
         ry="0.65707117" />
    </clipPath>
    <filter
       style="color-interpolation-filters:sRGB"
       id="filter4996"
       x="-0.085926671"
       y="-0.053105643"
       width="1.2017781"
       height="1.1106147">
      <feFlood
         flood-opacity="0.498039"
         flood-color="rgb(0,0,0)"
         result="flood"
         id="feFlood4986" />
      <feComposite
         in="SourceGraphic"
         in2="flood"
         operator="in"
         result="composite1"
         id="feComposite4988" />
      <feGaussianBlur
         in="composite1"
         stdDeviation="2.2"
         result="blur"
         id="feGaussianBlur4990" />
      <feOffset
         dx="2.1"
         dy="0.5"
         result="offset"
         id="feOffset4992" />
      <feComposite
         in="SourceGraphic"
         in2="offset"
         operator="over"
         result="composite2"
         id="feComposite4994" />
    </filter>
  </defs>
  <g
     id="Card"
     transform="translate(-212.88193,-79.571379)">
    <rect
       style="fill:#ffffff;fill-opacity:0.795181;stroke:#000000;stroke-width:1.5;stroke-linecap:butt;stroke-linejoin:round;stroke-miterlimit:4;stroke-dasharray:none;stroke-opacity:1;filter:url(#filter4996)"
       id="outline"
       width="70.176117"
       height="113.54726"
       x="45.975079"
       y="16.27412"
       rx="13.405247"
       ry="13.405247"
       transform="matrix(0.99999999,-3.3101757e-8,-3.3101757e-8,-0.99999999,172.93686,215.92275)"
       inkscape:transform-center-x="-3.8258032e-06"
       inkscape:transform-center-y="9.4814714e-06" />
    <g
       style="fill:#000000"
       id="storage"
       transform="matrix(1.6386625,0,0,1.6386625,235.38604,159.75301)">
      <path
         d="M 0,0 H 24 V 24 H 0 Z"
         fill="none"
         id="path167" />
      <path
         d="M 2,20 H 22 V 16 H 2 Z m 2,-3 h 2 v 2 H 4 Z M 2,4 V 8 H 22 V 4 Z M 6,7 H 4 V 5 H 6 Z M 2,14 H 22 V 10 H 2 Z m 2,-3 h 2 v 2 H 4 Z"
         id="path169" />
    </g>
    <g
       style="fill:#000000"
       id="computer"
       transform="matrix(1.6386625,0,0,1.6386625,235.38604,86.727628)">
      <path
         d="M 0,0 H 24 V 24 H 0 Z"
         fill="none"
         id="path153" />
      <path
         d="m 20,18 c 1.1,0 1.99,-0.9 1.99,-2 L 22,6 C 22,4.9 21.1,4 20,4 H 4 C 2.9,4 2,4.9 2,6 v 10 c 0,1.1 0.9,2 2,2 H 0 v 2 H 24 V 18 Z M 4,6 H 20 V 16 H 4 Z"
         id="path155" />
    </g>
    <g
       id="arrows"
       transform="matrix(0.07500633,0,0,0.07500633,239.15783,126.73281)"
       inkscape:label="arrows">
      <path
         d="m 43.841,281.457 c -18.585,-44.869 -18.586,-94.29 0,-139.159 15.615,-37.697 42.78,-68.384 77.674,-88.255 v 75.005 h 30 V 15.053 H 37.519 v 30 h 43.755 c -73,57.164 -102.324,158.139 -65.15,247.885 14.167,34.202 37.07,64.159 66.234,86.634 28.274,21.789 61.873,36.201 97.162,41.677 l 4.601,-29.646 C 120.778,381.774 68.338,340.598 43.841,281.457 Z"
         id="path1653" />
      <path
         d="m 407.517,292.938 c 21.651,-52.272 21.651,-109.848 0,-162.12 C 393.35,96.616 370.447,66.659 341.283,44.185 313.008,22.395 279.409,7.983 244.12,2.507 l -4.6,29.646 c 63.342,9.829 115.782,51.005 140.279,110.146 18.585,44.869 18.585,94.29 0,139.159 -15.614,37.697 -42.78,68.384 -77.673,88.255 v -75.005 h -30 v 113.995 h 113.995 v -30 h -43.625 c 28.453,-22.217 50.831,-51.508 65.021,-85.765 z"
         id="path1655" />
    </g>
  </g>
  <g
     id="Message"
     transform="translate(-212.88193,-51.096906)">
    <g
       aria-label="404"
       id="404"
       style="font-size:50.8px;line-height:1.25;font-family:Roboto;-inkscape-font-specification:'Roboto, Normal';stroke-width:0.999997">
      <path
         d="m 345.99718,109.02336 h 5.01055 v 3.7455 h -5.01055 v 8.38399 h -4.61367 v -8.38399 H 324.938 v -2.70371 l 16.17266,-25.027927 h 4.88652 z m -15.8502,0 h 11.23653 V 91.312809 l -0.54571,0.992187 z"
         style="stroke-width:0.264583"
         id="path6396" />
      <path
         d="m 377.79679,105.74914 q 0,8.06152 -2.75332,11.98066 -2.75332,3.91914 -8.60723,3.91914 -5.77949,0 -8.55761,-3.81992 -2.77813,-3.84473 -2.87735,-11.45977 v -6.12675 q 0,-7.962309 2.75332,-11.83184 2.75332,-3.869531 8.63203,-3.869531 5.8291,0 8.58242,3.745508 2.75333,3.720703 2.82774,11.509375 z m -4.58887,-6.275589 q 0,-5.829102 -1.63711,-8.483203 -1.63711,-2.678906 -5.18418,-2.678906 -3.52226,0 -5.13457,2.654101 -1.6123,2.654102 -1.66191,8.160742 v 7.342185 q 0,5.85391 1.68672,8.65684 1.71152,2.77812 5.15937,2.77812 3.39824,0 5.03535,-2.62929 1.66192,-2.6293 1.73633,-8.28477 z"
         style="stroke-width:0.264583"
         id="path6398" />
      <path
         d="m 403.04796,109.02336 h 5.01055 v 3.7455 h -5.01055 v 8.38399 h -4.61367 v -8.38399 h -16.44551 v -2.70371 l 16.17266,-25.027927 h 4.88652 z m -15.85019,0 h 11.23652 V 91.312809 l -0.5457,0.992187 z"
         style="stroke-width:0.264583"
         id="path6400" />
    </g>
    <g
       aria-label="Упс... Ничего не найдено"
       id="description"
       style="font-size:10.5833px;line-height:1.25;stroke-width:0.264583"
       inkscape:label="">
      <path
         d="m 303.51521,135.1804 -2.92488,6.47504 q -0.1757,0.39274 -0.41858,0.64595 -0.23771,0.25322 -0.51676,0.39274 -0.26872,0.12919 -0.52193,0.1757 -0.24805,0.0413 -0.48059,0.0413 -0.2067,0 -0.50126,-0.0207 -0.29455,-0.0207 -0.37724,-0.0258 v -0.95601 h 0.0723 q 0.0775,0.0103 0.25838,0.0362 0.18087,0.0207 0.41341,0.0207 0.10336,0 0.28939,-0.0155 0.18603,-0.0155 0.33073,-0.0723 0.16536,-0.062 0.32556,-0.19637 0.16536,-0.13436 0.27905,-0.39274 l 0.18603,-0.40824 -2.86286,-5.6999 h 1.13171 l 2.24792,4.53718 2.01537,-4.53718 z"
         id="path6403" />
      <path
         d="m 309.33396,142.875 h -0.97152 v -4.93508 h -2.8887 v 4.93508 h -0.97152 v -5.77224 h 4.83174 z"
         id="path6405" />
      <path
         d="m 315.56611,142.51327 q -0.59427,0.27905 -1.02319,0.3824 -0.42374,0.10852 -0.84749,0.10852 -0.63045,0 -1.15755,-0.18087 -0.52709,-0.18603 -0.90433,-0.5581 -0.37724,-0.37207 -0.58911,-0.94051 -0.2067,-0.56844 -0.2067,-1.32808 0,-1.37975 0.7648,-2.20141 0.76481,-0.82682 2.09289,-0.82682 0.50126,0 0.98185,0.13953 0.48576,0.13952 0.88883,0.34106 v 1.08004 h -0.0568 q -0.48059,-0.36691 -0.95084,-0.5426 -0.46509,-0.1757 -0.90434,-0.1757 -0.86299,0 -1.33841,0.57877 -0.47026,0.57877 -0.47026,1.60713 0,1.02836 0.47026,1.5968 0.47025,0.56844 1.33841,0.56844 0.30489,0 0.60461,-0.0775 0.30489,-0.0775 0.55294,-0.20153 0.19637,-0.0982 0.40307,-0.23255 0.21188,-0.13952 0.29456,-0.2067 h 0.0568 z"
         id="path6407" />
      <path
         d="m 318.48582,142.875 h -1.23506 v -1.47277 h 1.23506 z"
         id="path6409" />
      <path
         d="m 322.3357,142.875 h -1.23506 v -1.47277 h 1.23506 z"
         id="path6411" />
      <path
         d="m 326.18559,142.875 h -1.23507 v -1.47277 h 1.23507 z"
         id="path6413" />
      <path
         d="m 338.13314,142.875 h -1.02319 v -3.7672 h -3.83955 v 3.7672 h -1.02319 v -7.6946 h 1.02319 v 3.0179 h 3.83955 v -3.0179 h 1.02319 z"
         id="path6415" />
      <path
         d="m 344.98541,142.875 h -0.96118 v -4.33564 l -3.02306,4.33564 h -0.87849 v -5.77224 h 0.96117 v 4.27363 l 2.99206,-4.27363 h 0.9095 z"
         id="path6417" />
      <path
         d="m 351.39327,142.875 h -0.97151 v -2.21691 q -0.47026,0.14469 -0.89917,0.23254 -0.42891,0.0879 -0.93534,0.0879 -0.93017,0 -1.4211,-0.45475 -0.49092,-0.45992 -0.49092,-1.32291 v -2.09806 h 0.97151 v 1.60197 q 0,0.33072 0.0413,0.59427 0.0413,0.25838 0.1757,0.44959 0.13436,0.18603 0.37724,0.28422 0.24288,0.0982 0.67696,0.0982 0.35656,0 0.77514,-0.0672 0.41858,-0.0724 0.72864,-0.16536 v -2.79569 h 0.97151 z"
         id="path6419" />
      <path
         d="m 358.13702,140.08965 h -4.25295 q 0,0.53226 0.16019,0.93017 0.1602,0.39274 0.43925,0.64596 0.26872,0.24804 0.63562,0.37206 0.37207,0.12403 0.81648,0.12403 0.58911,0 1.18339,-0.23255 0.59945,-0.23771 0.85266,-0.46508 h 0.0517 v 1.05936 q -0.49093,0.20671 -1.00252,0.34623 -0.5116,0.13953 -1.07487,0.13953 -1.4366,0 -2.24275,-0.77515 -0.80615,-0.78031 -0.80615,-2.21174 0,-1.41593 0.76998,-2.24792 0.77514,-0.83199 2.03604,-0.83199 1.16788,0 1.79834,0.68213 0.63561,0.68213 0.63561,1.93786 z m -0.94567,-0.74414 q -0.005,-0.76481 -0.38757,-1.18339 -0.37724,-0.41857 -1.15239,-0.41857 -0.78031,0 -1.24539,0.45992 -0.45992,0.45991 -0.52193,1.14204 z"
         id="path6421" />
      <path
         d="m 363.58887,137.95542 h -3.00756 v 4.91958 h -0.97151 v -5.77224 h 3.97907 z"
         id="path6423" />
      <path
         d="m 369.51614,139.99146 q 0,1.41077 -0.72347,2.22725 -0.72347,0.81649 -1.93786,0.81649 -1.22472,0 -1.94819,-0.81649 -0.7183,-0.81648 -0.7183,-2.22725 0,-1.41076 0.7183,-2.22724 0.72347,-0.82166 1.94819,-0.82166 1.21439,0 1.93786,0.82166 0.72347,0.81648 0.72347,2.22724 z m -1.00252,0 q 0,-1.12137 -0.43925,-1.66397 -0.43925,-0.54777 -1.21956,-0.54777 -0.79064,0 -1.22989,0.54777 -0.43408,0.5426 -0.43408,1.66397 0,1.08521 0.43925,1.64848 0.43924,0.5581 1.22472,0.5581 0.77515,0 1.21439,-0.55294 0.44442,-0.5581 0.44442,-1.65364 z"
         id="path6425" />
      <path
         d="m 379.57234,142.875 h -0.97151 v -2.59932 h -2.88871 v 2.59932 h -0.97151 v -5.77224 h 0.97151 v 2.33577 h 2.88871 v -2.33577 h 0.97151 z"
         id="path6427" />
      <path
         d="m 386.31609,140.08965 h -4.25295 q 0,0.53226 0.16019,0.93017 0.1602,0.39274 0.43925,0.64596 0.26872,0.24804 0.63562,0.37206 0.37207,0.12403 0.81648,0.12403 0.58911,0 1.18339,-0.23255 0.59945,-0.23771 0.85266,-0.46508 h 0.0517 v 1.05936 q -0.49093,0.20671 -1.00252,0.34623 -0.5116,0.13953 -1.07487,0.13953 -1.4366,0 -2.24275,-0.77515 -0.80615,-0.78031 -0.80615,-2.21174 0,-1.41593 0.76998,-2.24792 0.77514,-0.83199 2.03604,-0.83199 1.16788,0 1.79833,0.68213 0.63562,0.68213 0.63562,1.93786 z m -0.94567,-0.74414 q -0.005,-0.76481 -0.38757,-1.18339 -0.37724,-0.41857 -1.15239,-0.41857 -0.78031,0 -1.24539,0.45992 -0.45992,0.45991 -0.52193,1.14204 z"
         id="path6429" />
      <path
         d="m 396.34129,142.875 h -0.97152 v -2.59932 h -2.8887 v 2.59932 h -0.97152 v -5.77224 h 0.97152 v 2.33577 h 2.8887 v -2.33577 h 0.97152 z"
         id="path6431" />
      <path
         d="m 402.73881,142.875 h -0.96634 v -0.61495 q -0.12919,0.0879 -0.3514,0.24805 -0.21704,0.15503 -0.42375,0.24804 -0.24288,0.11886 -0.5581,0.19637 -0.31523,0.0827 -0.73897,0.0827 -0.78031,0 -1.32291,-0.51677 -0.5426,-0.51676 -0.5426,-1.31774 0,-0.65629 0.27905,-1.05936 0.28422,-0.40825 0.80615,-0.64079 0.52709,-0.23254 1.26607,-0.31523 0.73897,-0.0827 1.58646,-0.12402 v -0.14986 q 0,-0.33073 -0.11886,-0.54777 -0.11369,-0.21704 -0.33073,-0.34106 -0.2067,-0.11886 -0.49609,-0.1602 -0.28939,-0.0413 -0.60461,-0.0413 -0.38241,0 -0.85266,0.10335 -0.47025,0.0982 -0.97151,0.28939 h -0.0517 v -0.98702 q 0.28422,-0.0775 0.82165,-0.17053 0.53744,-0.093 1.05937,-0.093 0.60978,0 1.05936,0.10336 0.45475,0.0982 0.78548,0.34106 0.32556,0.23771 0.49609,0.61495 0.17053,0.37724 0.17053,0.93534 z m -0.96634,-1.4211 v -1.60713 q -0.44442,0.0258 -1.04903,0.0775 -0.59945,0.0517 -0.95084,0.14986 -0.41858,0.11885 -0.67696,0.37207 -0.25838,0.24804 -0.25838,0.68729 0,0.49609 0.29972,0.74931 0.29972,0.24804 0.91467,0.24804 0.51159,0 0.93534,-0.19637 0.42374,-0.20154 0.78548,-0.48059 z"
         id="path6433" />
      <path
         d="m 409.47223,142.875 h -0.96118 v -4.33564 l -3.02306,4.33564 h -0.8785 v -5.77224 h 0.96118 v 4.27363 l 2.99206,-4.27363 h 0.9095 z m -0.55294,-8.04599 q -0.0258,0.7648 -0.48575,1.19372 -0.45476,0.42891 -1.32808,0.42891 -0.87333,0 -1.33325,-0.42891 -0.45475,-0.42892 -0.48059,-1.19372 h 0.88366 q 0.005,0.5426 0.23771,0.78547 0.23771,0.24288 0.69247,0.24288 0.45991,0 0.69246,-0.23771 0.23254,-0.23771 0.23771,-0.79064 z"
         id="path6435" />
      <path
         d="m 416.62422,144.25992 h -0.90433 v -1.40042 h -4.34081 v 1.40042 h -0.90433 v -2.21174 h 0.62528 q 0.60461,-0.99735 0.89917,-2.29959 0.29972,-1.30741 0.29972,-2.64583 h 3.62767 v 4.94542 h 0.69763 z m -1.66914,-2.21174 v -4.12893 h -1.74149 q -0.0672,1.29707 -0.39791,2.36677 -0.33073,1.0697 -0.75964,1.76216 z"
         id="path6437" />
      <path
         d="m 422.79437,140.08965 h -4.25295 q 0,0.53226 0.16019,0.93017 0.1602,0.39274 0.43925,0.64596 0.26872,0.24804 0.63562,0.37206 0.37207,0.12403 0.81648,0.12403 0.58911,0 1.18339,-0.23255 0.59944,-0.23771 0.85266,-0.46508 h 0.0517 v 1.05936 q -0.49092,0.20671 -1.00252,0.34623 -0.51159,0.13953 -1.07486,0.13953 -1.4366,0 -2.24275,-0.77515 -0.80615,-0.78031 -0.80615,-2.21174 0,-1.41593 0.76997,-2.24792 0.77515,-0.83199 2.03605,-0.83199 1.16788,0 1.79833,0.68213 0.63562,0.68213 0.63562,1.93786 z m -0.94567,-0.74414 q -0.005,-0.76481 -0.38758,-1.18339 -0.37723,-0.41857 -1.15238,-0.41857 -0.78031,0 -1.24539,0.45992 -0.45992,0.45991 -0.52193,1.14204 z"
         id="path6439" />
      <path
         d="m 429.09888,142.875 h -0.97152 v -2.59932 h -2.8887 v 2.59932 h -0.97151 v -5.77224 h 0.97151 v 2.33577 h 2.8887 v -2.33577 h 0.97152 z"
         id="path6441" />
      <path
         d="m 435.93048,139.99146 q 0,1.41077 -0.72347,2.22725 -0.72347,0.81649 -1.93786,0.81649 -1.22473,0 -1.9482,-0.81649 -0.7183,-0.81648 -0.7183,-2.22725 0,-1.41076 0.7183,-2.22724 0.72347,-0.82166 1.9482,-0.82166 1.21439,0 1.93786,0.82166 0.72347,0.81648 0.72347,2.22724 z m -1.00252,0 q 0,-1.12137 -0.43925,-1.66397 -0.43925,-0.54777 -1.21956,-0.54777 -0.79065,0 -1.2299,0.54777 -0.43408,0.5426 -0.43408,1.66397 0,1.08521 0.43925,1.64848 0.43925,0.5581 1.22473,0.5581 0.77514,0 1.21439,-0.55294 0.44442,-0.5581 0.44442,-1.65364 z"
         id="path6443" />
    </g>
  </g>
</svg>
